<svg width="238" height="58" viewBox="0 0 238 58" fill="none" xmlns="http://www.w3.org/2000/svg">
<path fill-rule="evenodd" clip-rule="evenodd" d="M57.1822 10.2892L53.949 9.52623L45.211 18.2172L40.2617 13.1751L48.7842 4.23119L48.038 0.94718C46.2371 0.344491 44.3534 0.0255502 42.4545 0.00178437C40.383 -0.0300803 38.3272 0.365133 36.4151 1.1628C34.5688 1.99877 32.9 3.18113 31.4989 4.64583C29.9393 6.12369 28.7041 7.90997 27.8719 9.89112C26.2696 13.8339 26.2696 18.2467 27.8719 22.1896C19.2303 30.694 10.7002 39.3111 2.28397 48.0387C1.41349 49.179 0.998979 50.6012 1.10675 52.0317C1.19169 53.5703 1.88341 55.0124 3.0301 56.0414C3.54409 56.6011 4.15758 57.0655 4.84152 57.4014C5.5462 57.7124 6.30476 57.8907 7.07161 57.928C8.38147 57.9031 9.63745 57.4056 10.6116 56.5307C17.0282 50.4892 29.3227 38.0788 36.3073 30.8059C38.2016 31.6103 40.2369 32.025 42.2929 32.0208C44.3625 32.0192 46.4107 31.6026 48.3166 30.7957C50.2226 29.9888 51.9475 28.8079 53.3894 27.3229C56.3513 24.3012 58.0056 20.2349 57.9947 16.003C58.0426 14.0665 57.768 12.1355 57.1822 10.2892ZM8.10375 53.5908C7.9442 53.7325 7.75188 53.8323 7.54416 53.8811C7.3398 53.9164 7.13089 53.9164 6.92653 53.8811C6.71227 53.8484 6.50819 53.7676 6.32963 53.6447C6.13802 53.5325 5.97601 53.3761 5.85708 53.1886C5.27676 52.5956 4.73375 51.4678 5.27676 50.8334C10.9556 44.792 22.649 32.9828 29.9611 25.7638C30.3756 26.3112 30.8316 26.8336 31.3207 27.3229C31.8098 27.8329 32.3362 28.3056 32.8958 28.7368C25.8242 35.9932 14.2883 47.6613 8.10375 53.5908ZM54.1894 16.003C54.1977 19.1751 52.9625 22.2227 50.7407 24.495C48.5235 26.6706 45.5417 27.8894 42.4359 27.8894C39.3301 27.8894 36.3482 26.6706 34.1311 24.495C32.5061 22.7987 31.3961 20.6756 30.9301 18.3729C30.4641 16.0702 30.6614 13.6825 31.4989 11.4875C32.0564 9.99368 32.9211 8.63352 34.0372 7.495C35.1532 6.35648 36.4957 5.46494 37.9778 4.87804C39.385 4.28886 40.8958 3.98716 42.4214 3.99069H43.4742L35.9425 11.757V14.643L43.7976 22.4632H46.5333L54.1894 14.9332V16.003ZM9.37631 23.5703H15.7225L18.6448 26.5434L21.4552 23.7486L18.6987 20.9373V20.759L18.935 13.9215L18.0231 12.1095L6.16797 4.30582L3.71819 4.57949L0.273579 8.09985L0 10.5836L7.61877 22.683L9.37631 23.5703ZM5.45915 8.51035L15.051 14.8296L14.8893 19.4861H10.4292L4.24462 9.69209L5.45915 8.51035ZM34.9104 37.3698L37.7042 34.5792L50.579 47.7857C51.6635 48.9258 52.2682 50.4393 52.2682 52.0131C52.2682 53.5868 51.6635 55.1003 50.579 56.2404C49.7636 57.0778 48.715 57.6503 47.5698 57.8832C46.4246 58.1162 45.2358 57.9989 44.1582 57.5465C43.4704 57.2414 42.8536 56.7966 42.3468 56.2404L29.3227 42.9592L32.1373 40.1479L45.1199 53.3918C45.2944 53.5844 45.5116 53.7335 45.7541 53.8271C46.2312 54.021 46.7651 54.021 47.2422 53.8271C47.4845 53.7333 47.7017 53.5843 47.8764 53.3918C48.0578 53.212 48.1991 52.9958 48.2909 52.7574C48.386 52.5141 48.4365 52.2556 48.4401 51.9944C48.436 51.7336 48.3869 51.4755 48.295 51.2315C48.2032 50.9931 48.0619 50.7768 47.8805 50.597L34.9104 37.3698Z" fill="#77ADF9"/>
<path d="M96.632 27V7.4H104.696C106.432 7.4 107.916 7.68 109.148 8.24C110.399 8.8 111.36 9.60267 112.032 10.648C112.704 11.6933 113.04 12.9347 113.04 14.372C113.04 15.8093 112.704 17.0507 112.032 18.096C111.36 19.1413 110.399 19.944 109.148 20.504C107.916 21.064 106.432 21.344 104.696 21.344H98.648L100.272 19.636V27H96.632ZM100.272 20.028L98.648 18.264H104.528C106.133 18.264 107.337 17.928 108.14 17.256C108.961 16.5653 109.372 15.604 109.372 14.372C109.372 13.1213 108.961 12.16 108.14 11.488C107.337 10.816 106.133 10.48 104.528 10.48H98.648L100.272 8.688V20.028ZM116.612 27V6.224H120.112V27H116.612ZM131.034 27.196C129.765 27.196 128.645 26.9627 127.674 26.496C126.703 26.0107 125.947 25.2827 125.406 24.312C124.865 23.3227 124.594 22.0813 124.594 20.588V12.048H128.094V20.112C128.094 21.456 128.393 22.464 128.99 23.136C129.606 23.7893 130.474 24.116 131.594 24.116C132.415 24.116 133.125 23.948 133.722 23.612C134.338 23.276 134.814 22.772 135.15 22.1C135.505 21.428 135.682 20.5973 135.682 19.608V12.048H139.182V27H135.85V22.968L136.438 24.2C135.934 25.1707 135.197 25.9173 134.226 26.44C133.255 26.944 132.191 27.196 131.034 27.196ZM162.637 11.88C163.831 11.88 164.886 12.1133 165.801 12.58C166.734 13.0467 167.462 13.7653 167.985 14.736C168.507 15.688 168.769 16.92 168.769 18.432V27H165.269V18.88C165.269 17.5547 164.979 16.5653 164.401 15.912C163.822 15.2587 162.991 14.932 161.909 14.932C161.143 14.932 160.462 15.1 159.865 15.436C159.286 15.772 158.829 16.2667 158.493 16.92C158.175 17.5733 158.017 18.404 158.017 19.412V27H154.517V18.88C154.517 17.5547 154.227 16.5653 153.649 15.912C153.07 15.2587 152.239 14.932 151.157 14.932C150.391 14.932 149.71 15.1 149.113 15.436C148.534 15.772 148.077 16.2667 147.741 16.92C147.423 17.5733 147.265 18.404 147.265 19.412V27H143.765V12.048H147.097V16.024L146.509 14.848C147.013 13.8773 147.741 13.14 148.693 12.636C149.663 12.132 150.765 11.88 151.997 11.88C153.397 11.88 154.61 12.2253 155.637 12.916C156.682 13.6067 157.373 14.652 157.709 16.052L156.337 15.576C156.822 14.456 157.625 13.56 158.745 12.888C159.865 12.216 161.162 11.88 162.637 11.88ZM181.529 27.196C180.26 27.196 179.131 26.916 178.141 26.356C177.152 25.796 176.368 24.956 175.789 23.836C175.229 22.6973 174.949 21.26 174.949 19.524C174.949 17.7693 175.239 16.332 175.817 15.212C176.415 14.092 177.208 13.2613 178.197 12.72C179.205 12.16 180.316 11.88 181.529 11.88C183.004 11.88 184.301 12.1973 185.421 12.832C186.56 13.4667 187.456 14.3533 188.109 15.492C188.781 16.6307 189.117 17.9747 189.117 19.524C189.117 21.0733 188.781 22.4173 188.109 23.556C187.456 24.6947 186.56 25.5907 185.421 26.244C184.301 26.8787 183.004 27.196 181.529 27.196ZM173.241 27V6.224H176.741V15.52L176.461 19.496L176.573 23.472V27H173.241ZM181.137 24.2C181.977 24.2 182.724 24.0133 183.377 23.64C184.049 23.2667 184.581 22.7253 184.973 22.016C185.365 21.3067 185.561 20.476 185.561 19.524C185.561 18.5533 185.365 17.7227 184.973 17.032C184.581 16.3227 184.049 15.7813 183.377 15.408C182.724 15.0347 181.977 14.848 181.137 14.848C180.297 14.848 179.541 15.0347 178.869 15.408C178.197 15.7813 177.665 16.3227 177.273 17.032C176.881 17.7227 176.685 18.5533 176.685 19.524C176.685 20.476 176.881 21.3067 177.273 22.016C177.665 22.7253 178.197 23.2667 178.869 23.64C179.541 24.0133 180.297 24.2 181.137 24.2ZM199.465 27.196C197.803 27.196 196.347 26.8693 195.097 26.216C193.865 25.544 192.903 24.6293 192.213 23.472C191.541 22.3147 191.205 20.9987 191.205 19.524C191.205 18.0307 191.531 16.7147 192.185 15.576C192.857 14.4187 193.771 13.5133 194.929 12.86C196.105 12.2067 197.439 11.88 198.933 11.88C200.389 11.88 201.686 12.1973 202.825 12.832C203.963 13.4667 204.859 14.3627 205.513 15.52C206.166 16.6773 206.493 18.04 206.493 19.608C206.493 19.7573 206.483 19.9253 206.465 20.112C206.465 20.2987 206.455 20.476 206.437 20.644H193.977V18.32H204.589L203.217 19.048C203.235 18.1893 203.058 17.4333 202.685 16.78C202.311 16.1267 201.798 15.6133 201.145 15.24C200.51 14.8667 199.773 14.68 198.933 14.68C198.074 14.68 197.318 14.8667 196.665 15.24C196.03 15.6133 195.526 16.136 195.153 16.808C194.798 17.4613 194.621 18.236 194.621 19.132V19.692C194.621 20.588 194.826 21.3813 195.237 22.072C195.647 22.7627 196.226 23.2947 196.973 23.668C197.719 24.0413 198.578 24.228 199.549 24.228C200.389 24.228 201.145 24.0973 201.817 23.836C202.489 23.5747 203.086 23.164 203.609 22.604L205.485 24.76C204.813 25.544 203.963 26.1507 202.937 26.58C201.929 26.9907 200.771 27.196 199.465 27.196ZM209.855 27V12.048H213.187V16.164L212.795 14.96C213.243 13.952 213.943 13.1867 214.895 12.664C215.865 12.1413 217.069 11.88 218.507 11.88V15.212C218.357 15.1747 218.217 15.156 218.087 15.156C217.956 15.1373 217.825 15.128 217.695 15.128C216.369 15.128 215.315 15.52 214.531 16.304C213.747 17.0693 213.355 18.2173 213.355 19.748V27H209.855ZM228.059 27.196C226.528 27.196 225.166 26.8693 223.971 26.216C222.776 25.544 221.834 24.6293 221.143 23.472C220.452 22.3147 220.107 20.9987 220.107 19.524C220.107 18.0307 220.452 16.7147 221.143 15.576C221.834 14.4187 222.776 13.5133 223.971 12.86C225.166 12.2067 226.528 11.88 228.059 11.88C229.608 11.88 230.98 12.2067 232.175 12.86C233.388 13.5133 234.331 14.4093 235.003 15.548C235.694 16.6867 236.039 18.012 236.039 19.524C236.039 20.9987 235.694 22.3147 235.003 23.472C234.331 24.6293 233.388 25.544 232.175 26.216C230.98 26.8693 229.608 27.196 228.059 27.196ZM228.059 24.2C228.918 24.2 229.683 24.0133 230.355 23.64C231.027 23.2667 231.55 22.7253 231.923 22.016C232.315 21.3067 232.511 20.476 232.511 19.524C232.511 18.5533 232.315 17.7227 231.923 17.032C231.55 16.3227 231.027 15.7813 230.355 15.408C229.683 15.0347 228.927 14.848 228.087 14.848C227.228 14.848 226.463 15.0347 225.791 15.408C225.138 15.7813 224.615 16.3227 224.223 17.032C223.831 17.7227 223.635 18.5533 223.635 19.524C223.635 20.476 223.831 21.3067 224.223 22.016C224.615 22.7253 225.138 23.2667 225.791 23.64C226.463 24.0133 227.219 24.2 228.059 24.2Z" fill="white"/>
<path d="M99.0703 51H97.7344V40.75H94.1406V39.5781H102.648V40.75H99.0703V51ZM111.148 50.9844L109.625 46C109.557 45.7865 109.492 45.5781 109.43 45.375C109.372 45.1667 109.318 44.9688 109.266 44.7812C109.219 44.5885 109.174 44.4115 109.133 44.25C109.096 44.0833 109.065 43.9401 109.039 43.8203H108.984C108.964 43.9401 108.935 44.0833 108.898 44.25C108.862 44.4115 108.818 44.5885 108.766 44.7812C108.719 44.974 108.667 45.1771 108.609 45.3906C108.552 45.599 108.487 45.8099 108.414 46.0234L106.82 50.9844H105.359L103 42.4219H104.344L105.578 47.1484C105.661 47.4609 105.74 47.7708 105.812 48.0781C105.891 48.3802 105.956 48.6667 106.008 48.9375C106.065 49.2031 106.107 49.4349 106.133 49.6328H106.195C106.227 49.5026 106.26 49.3464 106.297 49.1641C106.339 48.9818 106.383 48.7891 106.43 48.5859C106.482 48.3776 106.536 48.1719 106.594 47.9688C106.651 47.7604 106.708 47.5651 106.766 47.3828L108.344 42.4219H109.742L111.266 47.375C111.344 47.625 111.419 47.8854 111.492 48.1562C111.57 48.4271 111.641 48.6901 111.703 48.9453C111.766 49.1953 111.81 49.4193 111.836 49.6172H111.898C111.919 49.4401 111.958 49.2214 112.016 48.9609C112.073 48.7005 112.138 48.4141 112.211 48.1016C112.289 47.7891 112.37 47.4714 112.453 47.1484L113.703 42.4219H115.023L112.656 50.9844H111.148ZM123.969 46.7031C123.969 47.4062 123.878 48.0339 123.695 48.5859C123.513 49.138 123.25 49.6042 122.906 49.9844C122.562 50.3646 122.146 50.6562 121.656 50.8594C121.172 51.0573 120.622 51.1562 120.008 51.1562C119.435 51.1562 118.909 51.0573 118.43 50.8594C117.956 50.6562 117.544 50.3646 117.195 49.9844C116.852 49.6042 116.583 49.138 116.391 48.5859C116.203 48.0339 116.109 47.4062 116.109 46.7031C116.109 45.7656 116.268 44.9688 116.586 44.3125C116.904 43.651 117.357 43.1484 117.945 42.8047C118.539 42.4557 119.245 42.2812 120.062 42.2812C120.844 42.2812 121.526 42.4557 122.109 42.8047C122.698 43.1536 123.154 43.6589 123.477 44.3203C123.805 44.9766 123.969 45.7708 123.969 46.7031ZM117.453 46.7031C117.453 47.3906 117.544 47.987 117.727 48.4922C117.909 48.9974 118.19 49.388 118.57 49.6641C118.951 49.9401 119.44 50.0781 120.039 50.0781C120.633 50.0781 121.12 49.9401 121.5 49.6641C121.885 49.388 122.169 48.9974 122.352 48.4922C122.534 47.987 122.625 47.3906 122.625 46.7031C122.625 46.0208 122.534 45.4323 122.352 44.9375C122.169 44.4375 121.888 44.0521 121.508 43.7812C121.128 43.5104 120.635 43.375 120.031 43.375C119.141 43.375 118.487 43.6693 118.07 44.2578C117.659 44.8464 117.453 45.6615 117.453 46.7031ZM122.305 38.7422V38.8984C122.201 39.0495 122.057 39.2318 121.875 39.4453C121.698 39.6536 121.5 39.875 121.281 40.1094C121.062 40.3385 120.841 40.5573 120.617 40.7656C120.398 40.974 120.195 41.1536 120.008 41.3047H119.141V41.1172C119.307 40.9193 119.49 40.6823 119.688 40.4062C119.885 40.125 120.078 39.8385 120.266 39.5469C120.453 39.25 120.609 38.9818 120.734 38.7422H122.305ZM125.18 54.8438C124.914 54.8438 124.682 54.8229 124.484 54.7812C124.286 54.7448 124.115 54.7005 123.969 54.6484V53.5938C124.13 53.6458 124.294 53.6849 124.461 53.7109C124.628 53.7422 124.815 53.7578 125.023 53.7578C125.378 53.7578 125.664 53.6589 125.883 53.4609C126.102 53.263 126.211 52.9036 126.211 52.3828V42.4375H127.508V52.3516C127.508 52.8724 127.424 53.3177 127.258 53.6875C127.091 54.0625 126.836 54.349 126.492 54.5469C126.148 54.7448 125.711 54.8438 125.18 54.8438ZM126.094 40.0859C126.094 39.7943 126.167 39.5807 126.312 39.4453C126.464 39.3047 126.651 39.2344 126.875 39.2344C127.089 39.2344 127.271 39.3047 127.422 39.4453C127.578 39.5807 127.656 39.7943 127.656 40.0859C127.656 40.3724 127.578 40.5859 127.422 40.7266C127.271 40.8672 127.089 40.9375 126.875 40.9375C126.651 40.9375 126.464 40.8672 126.312 40.7266C126.167 40.5859 126.094 40.3724 126.094 40.0859ZM135.711 38.8438V42.4766C135.711 42.6849 135.706 42.8958 135.695 43.1094C135.685 43.3177 135.667 43.5104 135.641 43.6875H135.727C135.904 43.3854 136.128 43.1328 136.398 42.9297C136.674 42.7214 136.987 42.5651 137.336 42.4609C137.685 42.3516 138.055 42.2969 138.445 42.2969C139.133 42.2969 139.706 42.4062 140.164 42.625C140.628 42.8438 140.974 43.1823 141.203 43.6406C141.438 44.099 141.555 44.6927 141.555 45.4219V51H140.273V45.5078C140.273 44.7943 140.109 44.2604 139.781 43.9062C139.458 43.5521 138.961 43.375 138.289 43.375C137.654 43.375 137.146 43.4974 136.766 43.7422C136.391 43.9818 136.12 44.3359 135.953 44.8047C135.792 45.2734 135.711 45.8464 135.711 46.5234V51H134.414V38.8438H135.711ZM142.875 42.4375H144.266L146.156 47.4062C146.266 47.6979 146.367 47.9792 146.461 48.25C146.555 48.5156 146.638 48.7708 146.711 49.0156C146.784 49.2604 146.841 49.4974 146.883 49.7266H146.938C147.01 49.4661 147.115 49.125 147.25 48.7031C147.385 48.276 147.531 47.8411 147.688 47.3984L149.477 42.4375H150.875L147.148 52.2578C146.951 52.7839 146.719 53.2422 146.453 53.6328C146.193 54.0234 145.875 54.3229 145.5 54.5312C145.125 54.7448 144.672 54.8516 144.141 54.8516C143.896 54.8516 143.68 54.8359 143.492 54.8047C143.305 54.7786 143.143 54.7474 143.008 54.7109V53.6719C143.122 53.6979 143.26 53.7214 143.422 53.7422C143.589 53.763 143.76 53.7734 143.938 53.7734C144.26 53.7734 144.539 53.7109 144.773 53.5859C145.013 53.4661 145.219 53.2891 145.391 53.0547C145.562 52.8203 145.711 52.5417 145.836 52.2188L146.305 51.0156L142.875 42.4375ZM155.289 51.1562C154.206 51.1562 153.346 50.7865 152.711 50.0469C152.081 49.3073 151.766 48.2083 151.766 46.75C151.766 45.276 152.089 44.1641 152.734 43.4141C153.38 42.6589 154.24 42.2812 155.312 42.2812C155.766 42.2812 156.161 42.3411 156.5 42.4609C156.839 42.5807 157.13 42.7422 157.375 42.9453C157.62 43.1432 157.826 43.3698 157.992 43.625H158.086C158.065 43.4635 158.044 43.2422 158.023 42.9609C158.003 42.6797 157.992 42.4505 157.992 42.2734V38.8438H159.289V51H158.242L158.047 49.7812H157.992C157.831 50.0365 157.625 50.2682 157.375 50.4766C157.13 50.6849 156.836 50.8516 156.492 50.9766C156.154 51.0964 155.753 51.1562 155.289 51.1562ZM155.492 50.0781C156.409 50.0781 157.057 49.8177 157.438 49.2969C157.818 48.776 158.008 48.0026 158.008 46.9766V46.7422C158.008 45.6536 157.826 44.8177 157.461 44.2344C157.102 43.651 156.445 43.3594 155.492 43.3594C154.695 43.3594 154.099 43.6667 153.703 44.2812C153.307 44.8906 153.109 45.724 153.109 46.7812C153.109 47.8333 153.305 48.6458 153.695 49.2188C154.091 49.7917 154.69 50.0781 155.492 50.0781ZM165.93 42.2812C166.102 42.2812 166.281 42.2917 166.469 42.3125C166.656 42.3281 166.823 42.3516 166.969 42.3828L166.805 43.5859C166.664 43.5495 166.508 43.5208 166.336 43.5C166.164 43.4792 166.003 43.4688 165.852 43.4688C165.508 43.4688 165.182 43.5391 164.875 43.6797C164.573 43.8151 164.307 44.013 164.078 44.2734C163.849 44.5286 163.669 44.8385 163.539 45.2031C163.409 45.5625 163.344 45.9635 163.344 46.4062V51H162.039V42.4375H163.117L163.258 44.0156H163.312C163.49 43.6979 163.703 43.4089 163.953 43.1484C164.203 42.8828 164.492 42.6719 164.82 42.5156C165.154 42.3594 165.523 42.2812 165.93 42.2812ZM171.789 42.2969C172.81 42.2969 173.568 42.526 174.062 42.9844C174.557 43.4427 174.805 44.1745 174.805 45.1797V51H173.859L173.609 49.7344H173.547C173.307 50.0469 173.057 50.3099 172.797 50.5234C172.536 50.7318 172.234 50.8906 171.891 51C171.552 51.1042 171.135 51.1562 170.641 51.1562C170.12 51.1562 169.656 51.0651 169.25 50.8828C168.849 50.7005 168.531 50.4245 168.297 50.0547C168.068 49.6849 167.953 49.2161 167.953 48.6484C167.953 47.7943 168.292 47.138 168.969 46.6797C169.646 46.2214 170.677 45.9714 172.062 45.9297L173.539 45.8672V45.3438C173.539 44.6042 173.38 44.0859 173.062 43.7891C172.745 43.4922 172.297 43.3438 171.719 43.3438C171.271 43.3438 170.844 43.4089 170.438 43.5391C170.031 43.6693 169.646 43.8229 169.281 44L168.883 43.0156C169.268 42.8177 169.711 42.6484 170.211 42.5078C170.711 42.3672 171.237 42.2969 171.789 42.2969ZM173.523 46.7812L172.219 46.8359C171.151 46.8776 170.398 47.0521 169.961 47.3594C169.523 47.6667 169.305 48.1016 169.305 48.6641C169.305 49.1536 169.453 49.5156 169.75 49.75C170.047 49.9844 170.44 50.1016 170.93 50.1016C171.69 50.1016 172.312 49.8906 172.797 49.4688C173.281 49.0469 173.523 48.4141 173.523 47.5703V46.7812ZM184.547 42.4375V51H183.484L183.297 49.7969H183.227C183.049 50.0938 182.82 50.3438 182.539 50.5469C182.258 50.75 181.94 50.901 181.586 51C181.237 51.1042 180.865 51.1562 180.469 51.1562C179.792 51.1562 179.224 51.0469 178.766 50.8281C178.307 50.6094 177.961 50.2708 177.727 49.8125C177.497 49.3542 177.383 48.7656 177.383 48.0469V42.4375H178.695V47.9531C178.695 48.6667 178.857 49.2005 179.18 49.5547C179.503 49.9036 179.995 50.0781 180.656 50.0781C181.292 50.0781 181.797 49.9583 182.172 49.7188C182.552 49.4792 182.826 49.1276 182.992 48.6641C183.159 48.1953 183.242 47.6224 183.242 46.9453V42.4375H184.547ZM188.594 51H187.289V38.8438H188.594V51ZM192.633 42.4375V51H191.336V42.4375H192.633ZM192 39.2344C192.214 39.2344 192.396 39.3047 192.547 39.4453C192.703 39.5807 192.781 39.7943 192.781 40.0859C192.781 40.3724 192.703 40.5859 192.547 40.7266C192.396 40.8672 192.214 40.9375 192 40.9375C191.776 40.9375 191.589 40.8672 191.438 40.7266C191.292 40.5859 191.219 40.3724 191.219 40.0859C191.219 39.7943 191.292 39.5807 191.438 39.4453C191.589 39.3047 191.776 39.2344 192 39.2344ZM196.672 38.8438V45.1562C196.672 45.3646 196.664 45.6198 196.648 45.9219C196.633 46.2188 196.62 46.4818 196.609 46.7109H196.664C196.773 46.5755 196.932 46.375 197.141 46.1094C197.354 45.8438 197.534 45.6302 197.68 45.4688L200.523 42.4375H202.047L198.602 46.0938L202.297 51H200.734L197.711 46.9453L196.672 47.8984V51H195.383V38.8438H196.672Z" fill="white"/>
</svg>
