<svg width="92" height="92" viewBox="0 0 92 92" fill="none" xmlns="http://www.w3.org/2000/svg">
<rect width="92" height="92" rx="8" fill="white"/>
<path d="M63.8118 47.7835C63.8969 47.9299 63.952 48.0914 63.9741 48.2588C63.9962 48.4263 63.9847 48.5964 63.9403 48.7595C63.896 48.9225 63.8196 49.0753 63.7157 49.2091C63.6117 49.3429 63.4821 49.4551 63.3343 49.5392L59.051 51.9814L61.2582 53.2455C61.4057 53.3298 61.5351 53.4422 61.6388 53.5761C61.7425 53.7099 61.8186 53.8628 61.8627 54.0258C61.9068 54.1888 61.9181 54.3589 61.8959 54.5262C61.8737 54.6936 61.8185 54.855 61.7333 55.0012C61.6482 55.1474 61.5348 55.2755 61.3997 55.3783C61.2646 55.4811 61.1104 55.5565 60.9458 55.6002C60.7813 55.6439 60.6097 55.6551 60.4408 55.6331C60.2719 55.6111 60.1091 55.5563 59.9615 55.472L57.731 54.1964L57.7239 59.1365C57.7233 59.4768 57.5864 59.803 57.3433 60.0435C57.1002 60.284 56.7708 60.419 56.4273 60.419C56.2568 60.419 56.088 60.3857 55.9305 60.321C55.773 60.2563 55.63 60.1614 55.5095 60.0419C55.3891 59.9223 55.2936 59.7804 55.2286 59.6242C55.1636 59.4681 55.1303 59.3007 55.1306 59.1318L55.1399 52.712L47.299 48.2265V57.2091L52.893 60.4097C53.0405 60.4941 53.1699 60.6064 53.2736 60.7403C53.3773 60.8742 53.4534 61.0271 53.4975 61.1901C53.5416 61.3531 53.5529 61.5232 53.5307 61.6905C53.5085 61.8579 53.4533 62.0192 53.3681 62.1654C53.283 62.3116 53.1696 62.4398 53.0345 62.5426C52.8994 62.6453 52.7452 62.7207 52.5806 62.7645C52.4161 62.8082 52.2445 62.8194 52.0756 62.7974C51.9067 62.7754 51.7438 62.7206 51.5963 62.6363L47.2967 60.1778V62.7151C47.2967 63.0559 47.1601 63.3827 46.9169 63.6237C46.6737 63.8646 46.3439 64 46 64C45.6561 64 45.3263 63.8646 45.0831 63.6237C44.8399 63.3827 44.7033 63.0559 44.7033 62.7151V60.1755L40.4037 62.6339C40.2561 62.7183 40.0933 62.773 39.9244 62.795C39.7555 62.817 39.5839 62.8059 39.4194 62.7621C39.2548 62.7184 39.1006 62.643 38.9655 62.5402C38.8304 62.4375 38.717 62.3093 38.6319 62.1631C38.5467 62.0169 38.4915 61.8555 38.4693 61.6882C38.4471 61.5208 38.4584 61.3508 38.5025 61.1878C38.5466 61.0247 38.6227 60.8719 38.7264 60.738C38.8301 60.6041 38.9595 60.4918 39.107 60.4074L44.701 57.2068V48.2242L36.8601 52.7097L36.8694 59.1295C36.8697 59.2982 36.8365 59.4654 36.7716 59.6214C36.7067 59.7774 36.6115 59.9192 36.4913 60.0387C36.3711 60.1583 36.2283 60.2532 36.0711 60.318C35.9139 60.3829 35.7454 60.4164 35.5751 60.4167C35.2316 60.4167 34.8998 60.2816 34.6567 60.0412C34.4136 59.8007 34.2767 59.4745 34.2761 59.1341L34.269 54.194L32.0385 55.4697C31.7405 55.64 31.3864 55.6862 31.0542 55.5979C30.7219 55.5096 30.4386 55.2941 30.2667 54.9988C30.0947 54.7036 30.0482 54.3527 30.1373 54.0235C30.2264 53.6942 30.4438 53.4135 30.7418 53.2431L32.949 51.9791L28.6657 49.5346C28.5156 49.4517 28.3836 49.3401 28.2773 49.2062C28.1711 49.0724 28.0928 48.9189 28.047 48.7548C28.0011 48.5907 27.9887 48.4192 28.0103 48.2502C28.032 48.0813 28.0873 47.9183 28.1731 47.7707C28.2589 47.6232 28.3734 47.494 28.51 47.3907C28.6466 47.2874 28.8026 47.212 28.9689 47.1689C29.1351 47.1259 29.3084 47.116 29.4786 47.1399C29.6487 47.1638 29.8124 47.221 29.96 47.3081L35.5447 50.4948L43.4043 45.9954L35.5447 41.5052L29.96 44.6896C29.8124 44.7738 29.6494 44.8284 29.4804 44.8502C29.3114 44.872 29.1398 44.8606 28.9752 44.8167C28.8107 44.7727 28.6565 44.6971 28.5215 44.5941C28.3865 44.4911 28.2732 44.3628 28.1882 44.2165C28.1032 44.0701 28.0482 43.9086 28.0262 43.7412C28.0042 43.5737 28.0157 43.4037 28.06 43.2406C28.1043 43.0776 28.1807 42.9248 28.2846 42.791C28.3885 42.6572 28.518 42.545 28.6657 42.4608L32.949 40.0186L30.7418 38.7545C30.5943 38.6702 30.4649 38.5578 30.3612 38.4239C30.2575 38.2901 30.1814 38.1372 30.1373 37.9742C30.0931 37.8112 30.0819 37.6411 30.1041 37.4738C30.1263 37.3064 30.1815 37.145 30.2667 36.9988C30.3518 36.8526 30.4652 36.7245 30.6003 36.6217C30.7354 36.5189 30.8896 36.4435 31.0542 36.3998C31.2187 36.3561 31.3903 36.3449 31.5592 36.3669C31.7281 36.3889 31.8909 36.4437 32.0385 36.528L34.269 37.8036L34.2761 32.8635C34.2761 32.5228 34.4127 32.196 34.6558 31.955C34.899 31.714 35.2288 31.5787 35.5727 31.5787C35.7432 31.5787 35.912 31.612 36.0695 31.6767C36.227 31.7414 36.37 31.8363 36.4905 31.9558C36.6109 32.0754 36.7064 32.2173 36.7714 32.3735C36.8364 32.5296 36.8697 32.6969 36.8694 32.8659L36.8601 39.2857L44.701 43.7735V34.7909L39.107 31.5903C38.809 31.4199 38.5916 31.1392 38.5025 30.8099C38.4134 30.4807 38.4599 30.1298 38.6319 29.8346C38.8038 29.5393 39.0871 29.3238 39.4194 29.2355C39.7517 29.1472 40.1057 29.1934 40.4037 29.3637L44.7033 31.8222V29.2849C44.7033 28.9441 44.8399 28.6173 45.0831 28.3763C45.3263 28.1354 45.6561 28 46 28C46.3439 28 46.6737 28.1354 46.9169 28.3763C47.1601 28.6173 47.2967 28.9441 47.2967 29.2849V31.8222L51.5963 29.3637C51.8943 29.1934 52.2483 29.1472 52.5806 29.2355C52.9129 29.3238 53.1962 29.5393 53.3681 29.8346C53.5401 30.1298 53.5866 30.4807 53.4975 30.8099C53.4084 31.1392 53.191 31.4199 52.893 31.5903L47.299 34.7909V43.7735L55.1399 39.2857L55.1306 32.8659C55.1306 32.5255 55.2669 32.199 55.5095 31.9581C55.7522 31.7172 56.0814 31.5816 56.4249 31.581C56.7684 31.581 57.1002 31.716 57.3433 31.9565C57.5864 32.197 57.7233 32.5232 57.7239 32.8635L57.731 37.8036L59.9615 36.528C60.1091 36.4437 60.2719 36.3889 60.4408 36.3669C60.6097 36.3449 60.7813 36.3561 60.9458 36.3998C61.1104 36.4435 61.2646 36.5189 61.3997 36.6217C61.5348 36.7245 61.6482 36.8526 61.7333 36.9988C61.8185 37.145 61.8737 37.3064 61.8959 37.4738C61.9181 37.6411 61.9068 37.8112 61.8627 37.9742C61.8186 38.1372 61.7425 38.2901 61.6388 38.4239C61.5351 38.5578 61.4057 38.6702 61.2582 38.7545L59.051 40.0186L63.3343 42.4608C63.4844 42.5436 63.6164 42.6552 63.7227 42.7891C63.8289 42.923 63.9072 43.0764 63.953 43.2406C63.9989 43.4047 64.0113 43.5762 63.9897 43.7451C63.968 43.9141 63.9127 44.0771 63.8269 44.2246C63.7411 44.3722 63.6266 44.5014 63.49 44.6047C63.3534 44.708 63.1974 44.7834 63.0311 44.8264C62.8648 44.8695 62.6916 44.8793 62.5214 44.8555C62.3513 44.8316 62.1876 44.7744 62.04 44.6873L56.453 41.5052L48.598 46L56.4553 50.4971L62.0423 47.3104C62.19 47.2261 62.353 47.1714 62.5219 47.1496C62.6909 47.1277 62.8626 47.1391 63.0272 47.183C63.1917 47.2269 63.346 47.3026 63.481 47.4056C63.616 47.5087 63.7269 47.6371 63.8118 47.7835Z" fill="#77ADF9"/>
</svg>
