<svg width="20" height="20" viewBox="0 0 20 20" fill="none" xmlns="http://www.w3.org/2000/svg">
<path fill-rule="evenodd" clip-rule="evenodd" d="M9.11612 17.8661C8.62796 18.3543 8.62796 19.1457 9.11612 19.6339C9.60427 20.122 10.3957 20.122 10.8839 19.6339L19.6339 10.8839C20.122 10.3957 20.122 9.60427 19.6339 9.11612L10.8839 0.366117C10.3957 -0.122041 9.60427 -0.122041 9.11612 0.366117C8.62796 0.85427 8.62796 1.64573 9.11612 2.13388L15.7322 8.75L1.17188 8.75C0.524667 8.75 9.34581e-07 9.30964 8.74228e-07 10C8.13875e-07 10.6904 0.524667 11.25 1.17188 11.25L15.7322 11.25L9.11612 17.8661Z" fill="white"/>
</svg>
