<svg width="92" height="92" viewBox="0 0 92 92" fill="none" xmlns="http://www.w3.org/2000/svg">
<rect width="92" height="92" rx="8" fill="white"/>
<path fill-rule="evenodd" clip-rule="evenodd" d="M46 28C46.6935 28 47.2558 28.5623 47.2558 29.2558V32.6047C47.2558 33.2982 46.6935 33.8605 46 33.8605C45.3065 33.8605 44.7442 33.2982 44.7442 32.6047V29.2558C44.7442 28.5623 45.3065 28 46 28ZM32.0498 32.1293C32.5178 31.6174 33.3122 31.5818 33.824 32.0498L37.5446 35.4516C38.0565 35.9196 38.0921 36.7139 37.6241 37.2258C37.1561 37.7376 36.3617 37.7732 35.8498 37.3052L32.1293 33.9035C31.6174 33.4355 31.5818 32.6411 32.0498 32.1293ZM59.9503 32.1293C60.4183 32.6411 60.3826 33.4355 59.8707 33.9035L56.1502 37.3052C55.6383 37.7732 54.8439 37.7376 54.3759 37.2258C53.9079 36.7139 53.9434 35.9196 54.4553 35.4516L58.176 32.0498C58.6879 31.5818 59.4821 31.6174 59.9503 32.1293ZM46 38.8837C42.0698 38.8837 38.8837 42.0698 38.8837 46C38.8837 49.9302 42.0698 53.1163 46 53.1163C49.9302 53.1163 53.1163 49.9302 53.1163 46C53.1163 42.0698 49.9302 38.8837 46 38.8837ZM36.3721 46C36.3721 40.6826 40.6826 36.3721 46 36.3721C51.3173 36.3721 55.6279 40.6826 55.6279 46C55.6279 51.3173 51.3173 55.6279 46 55.6279C40.6826 55.6279 36.3721 51.3173 36.3721 46ZM28 46C28 45.3065 28.5623 44.7442 29.2558 44.7442H32.6047C33.2982 44.7442 33.8605 45.3065 33.8605 46C33.8605 46.6935 33.2982 47.2558 32.6047 47.2558H29.2558C28.5623 47.2558 28 46.6935 28 46ZM58.1395 46C58.1395 45.3065 58.7018 44.7442 59.3953 44.7442H62.7442C63.4377 44.7442 64 45.3065 64 46C64 46.6935 63.4377 47.2558 62.7442 47.2558H59.3953C58.7018 47.2558 58.1395 46.6935 58.1395 46ZM54.4148 54.4143C54.9052 53.9239 55.7004 53.9239 56.1908 54.4143L59.9114 58.1353C60.4018 58.6258 60.4017 59.421 59.9112 59.9114C59.4208 60.4018 58.6256 60.4017 58.1353 59.9112L54.4148 56.1902C53.9244 55.6997 53.9244 54.9047 54.4148 54.4143ZM37.5855 54.4145C38.0759 54.9049 38.0759 55.7001 37.5855 56.1905L33.8646 59.9114C33.3741 60.4018 32.579 60.4018 32.0886 59.9114C31.5981 59.421 31.5981 58.6258 32.0886 58.1355L35.8095 54.4145C36.2999 53.924 37.0951 53.924 37.5855 54.4145ZM46 58.1395C46.6935 58.1395 47.2558 58.7018 47.2558 59.3953V62.7442C47.2558 63.4377 46.6935 64 46 64C45.3065 64 44.7442 63.4377 44.7442 62.7442V59.3953C44.7442 58.7018 45.3065 58.1395 46 58.1395Z" fill="#2D5397"/>
</svg>
