<svg width="52" height="52" viewBox="0 0 52 52" fill="none" xmlns="http://www.w3.org/2000/svg">
<rect width="52" height="52" rx="26" fill="#77ADF9"/>
<path d="M35.6211 23.4531C35.7734 23.332 36 23.4453 36 23.6367V31.625C36 32.6602 35.1602 33.5 34.125 33.5H17.875C16.8398 33.5 16 32.6602 16 31.625V23.6406C16 23.4453 16.2227 23.3359 16.3789 23.457C17.2539 24.1367 18.4141 25 22.3984 27.8945C23.2227 28.4961 24.6133 29.7617 26 29.7539C27.3945 29.7656 28.8125 28.4727 29.6055 27.8945C33.5898 25 34.7461 24.1328 35.6211 23.4531ZM26 28.5C26.9062 28.5156 28.2109 27.3594 28.8672 26.8828C34.0508 23.1211 34.4453 22.793 35.6406 21.8555C35.8672 21.6797 36 21.4062 36 21.1172V20.375C36 19.3398 35.1602 18.5 34.125 18.5H17.875C16.8398 18.5 16 19.3398 16 20.375V21.1172C16 21.4062 16.1328 21.6758 16.3594 21.8555C17.5547 22.7891 17.9492 23.1211 23.1328 26.8828C23.7891 27.3594 25.0938 28.5156 26 28.5Z" fill="white"/>
</svg>
