<svg width="76" height="76" viewBox="0 0 76 76" fill="none" xmlns="http://www.w3.org/2000/svg">
<rect width="76" height="76" rx="38" fill="white"/>
<path d="M49.3156 42.9592L44.0655 40.7092C43.8412 40.6136 43.5919 40.5935 43.3552 40.6518C43.1185 40.7102 42.9071 40.8438 42.7529 41.0327L40.4279 43.8733C36.779 42.1529 33.8424 39.2163 32.122 35.5674L34.9627 33.2424C35.1519 33.0885 35.2858 32.8771 35.3442 32.6403C35.4025 32.4034 35.3821 32.154 35.2861 31.9298L33.0361 26.6797C32.9306 26.4381 32.7442 26.2407 32.5089 26.1218C32.2735 26.0028 32.0041 25.9697 31.747 26.0282L26.8719 27.1532C26.624 27.2104 26.4028 27.35 26.2445 27.5491C26.0861 27.7483 25.9999 27.9952 26 28.2496C26 40.2733 35.7455 50 47.7504 50C48.0049 50.0002 48.2519 49.914 48.4511 49.7557C48.6504 49.5973 48.79 49.3761 48.8473 49.1281L49.9723 44.253C50.0304 43.9947 49.9965 43.7241 49.8767 43.488C49.7568 43.2519 49.5584 43.0649 49.3156 42.9592Z" fill="#2D5397"/>
</svg>
