<svg width="52" height="52" viewBox="0 0 52 52" fill="none" xmlns="http://www.w3.org/2000/svg">
<rect width="52" height="52" rx="26" fill="#77ADF9"/>
<path d="M35.4296 30.1327L31.0546 28.2577C30.8677 28.178 30.6599 28.1612 30.4627 28.2099C30.2654 28.2585 30.0893 28.3698 29.9608 28.5272L28.0233 30.8944C24.9825 29.4607 22.5353 27.0136 21.1017 23.9728L23.4689 22.0353C23.6266 21.907 23.7382 21.7309 23.7868 21.5336C23.8354 21.3362 23.8185 21.1284 23.7384 20.9415L21.8634 16.5665C21.7755 16.365 21.6202 16.2006 21.4241 16.1015C21.228 16.0024 21.0034 15.9748 20.7891 16.0235L16.7266 16.961C16.52 17.0087 16.3357 17.125 16.2037 17.291C16.0718 17.4569 16 17.6627 16 17.8747C16 27.8944 24.1212 36 34.1253 36C34.3374 36.0001 34.5433 35.9284 34.7093 35.7964C34.8753 35.6644 34.9917 35.4801 35.0394 35.2734L35.9769 31.2109C36.0253 30.9955 35.9971 30.7701 35.8972 30.5733C35.7973 30.3765 35.632 30.2207 35.4296 30.1327Z" fill="white"/>
</svg>
