<svg width="52" height="52" viewBox="0 0 52 52" fill="none" xmlns="http://www.w3.org/2000/svg">
<rect width="52" height="52" rx="26" fill="#77ADF9"/>
<path d="M25.2292 35.5965C19.5535 27.3684 18.5 26.5239 18.5 23.5C18.5 19.3579 21.8579 16 26 16C30.1421 16 33.5 19.3579 33.5 23.5C33.5 26.5239 32.4465 27.3684 26.7708 35.5965C26.3983 36.1345 25.6016 36.1345 25.2292 35.5965ZM26 26.625C27.7259 26.625 29.125 25.2259 29.125 23.5C29.125 21.7741 27.7259 20.375 26 20.375C24.2741 20.375 22.875 21.7741 22.875 23.5C22.875 25.2259 24.2741 26.625 26 26.625Z" fill="white"/>
</svg>
