<svg width="92" height="92" viewBox="0 0 92 92" fill="none" xmlns="http://www.w3.org/2000/svg">
<rect width="92" height="92" rx="8" fill="white"/>
<path fill-rule="evenodd" clip-rule="evenodd" d="M60.5851 37.6002L55.2784 37.6092C53.8934 37.6115 52.5422 37.8868 51.2621 38.4275L42.087 42.036V38.5768L51.361 35.0349C52.8147 34.5676 53.8261 33.1615 53.8261 31.6C53.8261 29.615 52.2463 28 50.3044 28C50.2623 28 50.2204 28.0023 50.1786 28.0069L33.1614 29.8813L33.1415 29.8837C30.2104 30.2583 28 32.8178 28 35.8374V62.8C28 63.4627 28.5256 64 29.1739 64H40.913C41.5613 64 42.087 63.4627 42.087 62.8V56.2028L52.8495 48.0145C52.8565 48.0092 52.8634 48.0038 52.8702 47.9984L52.8819 47.9889C53.38 47.5816 53.9803 47.3213 54.6087 47.2336V49.1501C54.6087 50.7216 55.8594 52 57.3967 52H58.1149C57.787 52.0044 57.4756 52.1488 57.2563 52.3984C55.9552 53.8822 53.4343 57.1319 53.4343 59.1999C53.4343 61.8467 55.5408 64 58.13 64C60.7192 64 62.8256 61.8467 62.8256 59.1999C62.8256 57.1385 60.3111 53.8895 59.0037 52.3984C58.7844 52.1488 58.473 52.0044 58.1451 52H58.8642C60.4015 52 61.6522 50.7215 61.6522 49.1501V47.0777C63.0049 46.6898 64 45.4188 64 43.9138V41.0852C64 39.1744 62.4907 37.5997 60.5851 37.6002ZM39.7391 61.6H30.3478V38.8H39.7391V61.6ZM41.0534 36.4094C41.0072 36.4038 40.9606 36.4001 40.913 36.4001H30.3478V35.8375C30.3478 34.0288 31.6693 32.4953 33.4234 32.2664L50.3568 30.4012C50.9798 30.4293 51.4783 30.9562 51.4783 31.6C51.4783 32.1255 51.1351 32.5983 50.6438 32.7494C50.6194 32.757 50.5953 32.7652 50.5714 32.7744L41.0534 36.4094ZM59.3043 49.15C59.3043 49.3982 59.1069 49.6 58.8641 49.6H57.3967C57.1539 49.6 56.9564 49.3982 56.9564 49.15V47.2H59.3043V49.15H59.3043ZM61.6523 43.9138C61.6523 44.4024 61.2633 44.8 60.7852 44.8H55.082C53.7615 44.8 52.4664 45.2617 51.4323 46.1009L42.087 53.2109V44.6074L52.1191 40.6619L52.1307 40.6572L52.1474 40.6502C53.1464 40.2266 54.201 40.0109 55.2824 40.0091L60.5891 40H60.5909C61.1731 40 61.6523 40.481 61.6523 41.085V43.9138ZM33.8698 41.1999C33.2215 41.1999 32.6959 41.7372 32.6959 42.3999V58C32.6959 58.6626 33.2215 59.2 33.8698 59.2C34.5182 59.2 35.0437 58.6627 35.0437 58V42.3999C35.0437 41.7373 34.5182 41.1999 33.8698 41.1999ZM55.7822 59.1999C55.7822 60.5233 56.8354 61.5999 58.13 61.5999C59.4246 61.5999 60.4778 60.5233 60.4778 59.1999C60.4778 58.4351 59.3746 56.6487 58.13 55.058C56.8855 56.6486 55.7822 58.4351 55.7822 59.1999Z" fill="#2D5397"/>
</svg>
