<svg width="96" height="16" viewBox="0 0 96 16" fill="none" xmlns="http://www.w3.org/2000/svg">
<path d="M7.14168 0.556577L5.18879 4.69357L0.819452 5.35911C0.035902 5.47784 -0.278116 6.48709 0.290107 7.06515L3.45122 10.2835L2.70356 14.8298C2.56898 15.6516 3.39739 16.2671 4.09122 15.8828L8 13.7362L11.9088 15.8828C12.6026 16.264 13.431 15.6516 13.2964 14.8298L12.5488 10.2835L15.7099 7.06515C16.2781 6.48709 15.9641 5.47784 15.1805 5.35911L10.8112 4.69357L8.85832 0.556577C8.50841 -0.180831 7.49458 -0.190205 7.14168 0.556577Z" fill="#F2C94C"/>
<path d="M27.1417 0.556577L25.1888 4.69357L20.8195 5.35911C20.0359 5.47784 19.7219 6.48709 20.2901 7.06515L23.4512 10.2835L22.7036 14.8298C22.569 15.6516 23.3974 16.2671 24.0912 15.8828L28 13.7362L31.9088 15.8828C32.6026 16.264 33.431 15.6516 33.2964 14.8298L32.5488 10.2835L35.7099 7.06515C36.2781 6.48709 35.9641 5.47784 35.1805 5.35911L30.8112 4.69357L28.8583 0.556577C28.5084 -0.180831 27.4946 -0.190205 27.1417 0.556577Z" fill="#F2C94C"/>
<path d="M47.1417 0.556577L45.1888 4.69357L40.8195 5.35911C40.0359 5.47784 39.7219 6.48709 40.2901 7.06515L43.4512 10.2835L42.7036 14.8298C42.569 15.6516 43.3974 16.2671 44.0912 15.8828L48 13.7362L51.9088 15.8828C52.6026 16.264 53.431 15.6516 53.2964 14.8298L52.5488 10.2835L55.7099 7.06515C56.2781 6.48709 55.9641 5.47784 55.1805 5.35911L50.8112 4.69357L48.8583 0.556577C48.5084 -0.180831 47.4946 -0.190205 47.1417 0.556577Z" fill="#F2C94C"/>
<path d="M67.1417 0.556577L65.1888 4.69357L60.8195 5.35911C60.0359 5.47784 59.7219 6.48709 60.2901 7.06515L63.4512 10.2835L62.7036 14.8298C62.569 15.6516 63.3974 16.2671 64.0912 15.8828L68 13.7362L71.9088 15.8828C72.6026 16.264 73.431 15.6516 73.2964 14.8298L72.5488 10.2835L75.7099 7.06515C76.2781 6.48709 75.9641 5.47784 75.1805 5.35911L70.8112 4.69357L68.8583 0.556577C68.5084 -0.180831 67.4946 -0.190205 67.1417 0.556577Z" fill="#F2C94C"/>
<path d="M87.1417 0.556577L85.1888 4.69357L80.8195 5.35911C80.0359 5.47784 79.7219 6.48709 80.2901 7.06515L83.4512 10.2835L82.7036 14.8298C82.569 15.6516 83.3974 16.2671 84.0912 15.8828L88 13.7362L91.9088 15.8828C92.6026 16.264 93.431 15.6516 93.2964 14.8298L92.5488 10.2835L95.7099 7.06515C96.2781 6.48709 95.9641 5.47784 95.1805 5.35911L90.8112 4.69357L88.8583 0.556577C88.5084 -0.180831 87.4946 -0.190205 87.1417 0.556577Z" fill="#F2C94C"/>
</svg>
